<svg xmlns="http://www.w3.org/2000/svg" xml:space="preserve" width="15mm" height="15mm" version="1.1" style="shape-rendering:geometricPrecision; text-rendering:geometricPrecision; image-rendering:optimizeQuality; fill-rule:evenodd; clip-rule:evenodd"
viewBox="0 0 1500 1500"
 xmlns:xlink="http://www.w3.org/1999/xlink" fill="#e3ebf5">
 <defs>
  <style type="text/css">
    .str0 {stroke: #e3ebf5;stroke-width:52.92;stroke-miterlimit:22.9256}
   .fil3 {fill: none;}
    .fil1 {fill:#e3ebf5}
    .fil0 {fill:#e3ebf5;fill-rule:nonzero}
  </style>
   <clipPath id="id0">
    <rect x="-12220.56" y="-12586.6" width="10583.32" height="8466.66"/>
   </clipPath>
   <clipPath id="id1">
    <rect x="13404.47" y="-9030.65" width="33866.66" height="18811.86"/>
   </clipPath>
 </defs>
 <g id="Слой_x0020_1">
  <metadata id="CorelCorpID_0Corel-Layer"/>
  <g style="clip-path:url(#id0)">
   <image x="-12220.56" y="-12586.6" width="10583.32" height="8466.66" xlink:href="tobert_Images\tobert_ImgID1.png"/>
  </g>
  <g id="SvgjsG1229">
   <path class="fil0" d="M-24609.72 -3305.92l0 359.64 -583.05 0 0 1585.66 -427.75 0 0 -1585.66 -583.05 0 0 -359.64 1593.84 0 0.01 0zm563.98 498.58c225.22,0 403.23,68.57 534.01,205.7 130.78,137.13 196.17,316.51 196.17,538.09 0,223.41 -66.75,402.77 -200.25,538.09 -133.5,135.32 -310.13,202.98 -529.92,202.98 -223.41,0 -400.5,-68.57 -531.28,-205.7 -130.78,-137.13 -196.17,-315.58 -196.17,-535.37 0,-227.05 66.75,-407.78 200.25,-542.18 133.5,-134.4 309.23,-201.61 527.19,-201.61zm-340.57 743.79c0,143.49 29.06,254.28 87.18,332.39 58.12,78.11 142.59,117.15 253.38,117.15 114.43,0 200.25,-39.96 257.47,-119.88 57.22,-79.92 85.82,-189.8 85.82,-329.67 0,-145.31 -29.51,-257.02 -88.55,-335.12 -59.04,-78.1 -144.85,-117.15 -257.47,-117.15 -108.98,0 -192.53,39.05 -250.66,117.15 -58.13,78.1 -87.18,189.8 -87.18,335.12l0.01 0.01zm1708.28 -1242.37l0 708.36 5.45 0c41.78,-63.57 101.26,-114.43 178.46,-152.57 77.2,-38.14 165.75,-57.21 265.64,-57.21 172.56,0 312.85,69.02 420.93,207.06 108.08,138.04 162.11,316.04 162.11,534.01 0,219.77 -53.58,398.68 -160.75,536.73 -107.17,138.05 -248.83,207.06 -425.01,207.06 -228.86,0 -382.33,-72.65 -460.44,-217.96l-5.45 0 0 179.82 -367.81 0 0 -1945.3 386.88 0 -0.01 0zm-13.63 1242.37c0,136.23 29.97,245.21 89.91,326.94 59.94,81.73 139.86,122.6 239.76,122.6 98.08,0 177.54,-39.96 238.4,-119.88 60.86,-79.92 91.27,-189.8 91.27,-329.67 0,-138.04 -29.51,-247.93 -88.55,-329.67 -59.04,-81.74 -140.31,-122.6 -243.84,-122.6 -101.71,0 -181.63,41.78 -239.76,125.33 -58.13,83.55 -87.18,192.53 -87.18,326.94l-0.01 0.01zm1942.57 -743.79c132.59,0 250.66,30.87 354.19,92.63 103.53,61.76 184.82,151.21 243.84,268.36 59.02,117.15 88.55,252.02 88.55,404.59 0,14.53 -0.91,38.14 -2.72,70.84l-1016.24 0c3.63,112.61 33.15,200.25 88.54,262.92 55.39,62.67 140.31,94 254.74,94 70.84,0 135.77,-17.71 194.8,-53.13 59.03,-35.42 96.72,-78.56 113.07,-129.41l340.56 0c-99.9,316.04 -319.67,474.07 -659.33,474.07 -128.96,-1.82 -248.38,-29.97 -358.27,-84.46 -109.89,-54.49 -197.53,-139.4 -262.92,-254.74 -65.39,-115.34 -98.08,-249.29 -98.08,-401.87 0,-143.49 33.15,-274.28 99.44,-392.33 66.29,-118.05 154.38,-206.15 264.28,-264.28 109.9,-58.13 228.41,-87.18 355.55,-87.18l0 -0.01zm296.98 591.22c-18.16,-105.35 -51.77,-181.63 -100.81,-228.86 -49.04,-47.23 -118.97,-70.84 -209.79,-70.84 -94.45,0 -168.92,26.79 -223.41,80.37 -54.49,53.58 -86.28,126.69 -95.36,219.32l629.36 0 0.01 0.01zm1438.54 -591.22c32.69,0 60.85,4.54 84.46,13.62l0 359.64c-41.78,-9.08 -88.09,-13.62 -138.95,-13.62 -254.29,0 -381.43,150.76 -381.43,452.27l0 634.81 -386.88 0 0 -1408.58 367.81 0 0 261.55 5.45 0c38.14,-90.82 98.54,-163.47 181.18,-217.96 82.64,-54.49 172.09,-81.74 268.36,-81.74l0 0.01zm727.45 -384.15l0 422.29 283.35 0 0 258.83 -283.35 0 0 697.48c0,65.39 10.9,108.98 32.69,130.78 21.79,21.8 65.39,32.69 130.78,32.69 47.22,0 87.18,-3.63 119.88,-10.9l0 302.42c-54.49,9.08 -130.78,13.62 -228.86,13.62 -148.94,0 -259.74,-25.43 -332.39,-76.29 -72.65,-50.86 -108.98,-138.95 -108.98,-264.28l0 -825.53 -234.31 0 0 -258.83 234.31 0 0 -422.29 386.88 0 0 0.01z"/>
  </g>
  <g id="SvgjsG1230">
   <path class="fil0" d="M-25077.48 -842.04c7.3,0 10.95,3.65 10.95,10.95l0 35.79c0,7.3 -3.65,10.95 -10.95,10.95l-115.39 0 0 442.57c0,7.3 -3.65,10.95 -10.95,10.95l-41.63 0c-7.3,0 -10.95,-3.65 -10.95,-10.95l0 -442.57 -116.12 0c-7.3,0 -10.95,-3.65 -10.95,-10.95l0 -35.79c0,-7.3 3.65,-10.95 10.95,-10.95l168.7 0 126.35 0 -0.01 0zm686.01 496.62c3.65,8.76 -0.73,14.61 -10.22,14.61l-40.9 0c-6.57,0 -12.42,-2.92 -14.61,-9.49l-73.76 -166.51c-5.84,0.73 -11.69,0.73 -18.26,0.73l-124.88 0 0 164.32c0,7.3 -3.65,10.95 -10.95,10.95l-41.63 0c-7.3,0 -10.95,-3.65 -10.95,-10.95l0 -489.31c0,-7.3 3.65,-10.95 10.95,-10.95l41.63 0 135.84 0c94.94,0 144.6,51.12 144.6,146.06l0 43.82c0,63.54 -22.64,108.09 -66.46,130l79.6 176.72zm-282.63 -218.37l124.88 0c56.96,0 81.07,-23.37 81.07,-88.37l0 -43.82c0,-65 -24.1,-88.37 -81.07,-88.37l-124.88 0 0 220.56zm964.26 220.56c2.92,8.03 -1.46,12.42 -8.76,12.42l-40.9 0c-7.3,0 -10.95,-4.38 -13.88,-12.42l-27.75 -94.94 -192.8 0 -27.75 94.94c-2.19,8.03 -6.57,12.42 -13.88,12.42l-40.9 0c-7.3,0 -10.95,-4.38 -8.76,-12.42l147.52 -487.12c2.19,-7.3 7.3,-11.69 13.88,-11.69l51.85 0c6.57,0 11.69,4.38 13.88,11.69l148.25 487.12zm-268.03 -150.45l160.67 0 -80.34 -270.95 -80.33 270.95zm784.6 -348.36c93.48,0 143.14,51.12 143.14,144.6l0 222.02c0,93.48 -49.66,144.6 -143.14,144.6l-156.29 0 -26.29 0c-7.3,0 -10.95,-3.65 -10.95,-10.95l0 -489.31c0,-7.3 3.65,-10.95 10.95,-10.95l41.63 0 140.95 0 0 -0.01zm79.6 366.62l0 -222.02c0,-63.54 -24.1,-86.91 -79.6,-86.91l-130 0 0 395.83 130 0c55.5,0 79.6,-23.37 79.6,-86.91l0 0.01zm399.73 -355.67c0,-7.3 3.65,-10.95 10.95,-10.95l42.36 0c7.3,0 10.95,3.65 10.95,10.95l0 489.31c0,7.3 -3.65,10.95 -10.95,10.95l-42.36 0c-7.3,0 -10.95,-3.65 -10.95,-10.95l0 -489.31zm745.88 -10.95c7.3,0 10.95,3.65 10.95,10.95l0 489.31c0,7.3 -3.65,10.95 -10.95,10.95l-64.26 0c-5.84,0 -10.22,-2.19 -13.15,-8.03l-189.88 -410.44 0 407.52c0,7.3 -3.65,10.95 -10.95,10.95l-41.63 0c-7.3,0 -10.95,-3.65 -10.95,-10.95l0 -489.31c0,-7.3 3.65,-10.95 10.95,-10.95l64.27 0c5.84,0 10.22,2.19 13.15,8.03l189.88 409.71 0 -406.79c0,-7.3 3.65,-10.95 10.95,-10.95l41.62 0zm688.2 238.81c8.03,0 12.42,5.11 12.42,12.42l0 111.74c0,97.13 -50.39,151.91 -146.79,151.91l-56.23 0c-96.4,0 -146.79,-54.77 -146.79,-151.91l0 -214.71c0,-97.13 50.39,-151.91 146.79,-151.91l56.23 0c92.02,0 142.41,49.66 146.79,141.68 0,8.03 -4.38,12.42 -12.42,12.42l-37.98 0c-8.03,0 -13.15,-4.38 -13.15,-12.42 -2.92,-59.89 -28.48,-83.99 -83.26,-83.99l-56.23 0c-59.16,0 -83.26,27.02 -83.26,94.21l0 214.71c0,67.19 24.1,94.21 83.26,94.21l56.23 0c59.16,0 83.26,-27.02 83.26,-94.21l0 -69.38 -67.19 0c-8.03,0 -12.42,-5.11 -12.42,-12.42l0 -29.94c0,-7.3 4.38,-12.42 12.42,-12.42l118.31 0 0.01 0.01zm1103.25 -4.38c34.33,19.72 56.96,55.5 56.96,111.01l0 30.67c0,95.67 -50.39,135.11 -146.79,135.11l-153.37 0 -25.56 0c-7.3,0 -10.95,-3.65 -10.95,-10.95l0 -489.31c0,-7.3 3.65,-10.95 10.95,-10.95l41.63 0 135.84 0c87.64,0 127.81,40.9 127.81,133.65 0,46.01 -13.88,78.87 -36.52,100.78l0 -0.01zm-27.02 -100.78c0,-62.08 -14.61,-75.95 -64.27,-75.95l-124.88 0 0 156.29 124.88 0c49.66,0 64.27,-18.26 64.27,-80.34zm20.45 242.46l0 -30.67c0,-65 -24.83,-78.87 -83.26,-78.87l-126.35 0 0 186.96 126.35 0c58.43,0 83.26,-13.15 83.26,-77.41l0 -0.01zm597.64 -379.76c96.4,0 146.79,54.77 146.79,151.91l0 214.71c0,97.13 -50.39,151.91 -146.79,151.91l-62.08 0c-96.4,0 -146.79,-54.77 -146.79,-151.91l0 -214.71c0,-97.13 50.39,-151.91 146.79,-151.91l62.08 0zm83.26 366.62l0 -214.71c0,-67.19 -24.83,-94.21 -83.26,-94.21l-62.08 0c-59.16,0 -83.26,27.02 -83.26,94.21l0 214.71c0,67.19 24.1,94.21 83.26,94.21l62.08 0c58.43,0 83.26,-27.02 83.26,-94.21zm668.48 -362.97c7.3,0 10.95,3.65 10.95,10.95l0 35.79c0,7.3 -3.65,10.95 -10.95,10.95l-115.39 0 0 442.57c0,7.3 -3.65,10.95 -10.95,10.95l-41.63 0c-7.3,0 -10.95,-3.65 -10.95,-10.95l0 -442.57 -116.12 0c-7.3,0 -10.95,-3.65 -10.95,-10.95l0 -35.79c0,-7.3 3.65,-10.95 10.95,-10.95l168.7 0 126.35 0 -0.01 0z"/>
  </g>
  <g style="clip-path:url(#id1)">
   <image x="13404.47" y="-9030.65" width="33866.66" height="18811.86" xlink:href="tobert_Images\tobert_ImgID2.png"/>
  </g>
  <rect class="fil1" x="29450.87" y="-5040.51" width="1727.68" height="1669.44"/>
  <path class="fil2" d="M246.35 1125.86c30.38,60.42 35.62,88.22 115.86,161.54 131.56,91.72 169.77,110.36 311.88,143.63 -235.14,-228.88 -240.38,-327.91 -238.1,-443.29 1.85,-93.99 35.36,-169.37 69.97,-237.14 88.01,-172.37 284.78,-71.25 314.68,155.59 2.12,16.08 2.48,24.85 6.46,40.59 22.99,90.81 98.62,-31.82 129.45,-86.48 30.55,-54.16 31.7,-157.43 63.95,-209.31 170.01,-44.03 246.82,65.59 452.33,23.22 -0.88,-105.33 -27.77,-119.76 -92,-162.32 -84.45,-55.96 -68.36,-73.81 -126.09,-147.6 -56.3,-71.96 -208.69,-171.35 -347.09,-199.12 -231.38,-46.42 -303.89,46.35 -468.18,31.4 -124.1,-11.3 -388.37,7.59 -421.12,116.31 52.86,51.36 99.16,40.41 173.99,101.3 -29.22,78.87 -100.36,165.62 -54.21,375.52 185.26,-622.46 878.63,-672.49 1042.64,-316.82 -360.37,-474.44 -1209.22,92.32 -934.42,652.98z"/>
  <path class="fil2" d="M674.1 1431.02c-95.65,-102.23 -164.35,-369.96 -46.04,-536.23 43.65,-61.35 40.15,-51.72 103.9,-117.72 -40.63,-54.95 -117.2,-28.21 -169.86,53.06 -86.14,164.12 -95.32,437.49 112,600.89z"/>
  <polyline class="fil3 str0" points="1388.02,832.59 1388.02,832.59 1146.69,1293.5 1036.21,1041.78 827.29,1285.07 717.9,1152.64 "/>
 </g>
</svg>
